<svg width="6264" height="1080" viewBox="0 0 6264 1080" fill="none" xmlns="http://www.w3.org/2000/svg">
<path fill-rule="evenodd" clip-rule="evenodd" d="M0 54C0 24.1766 24.1766 0 54 0H162C191.823 0 216 24.1766 216 54V162C216 191.823 191.823 216 162 216C191.823 216 216 240.177 216 270C216 240.177 240.177 216 270 216H378C407.823 216 432 240.177 432 270V378C432 407.823 407.823 432 378 432H270C240.177 432 216 407.823 216 378C216 407.823 191.823 432 162 432C191.823 432 216 456.176 216 486V594C216 623.824 191.823 648 162 648C191.823 648 216 672.176 216 702V810C216 839.824 191.823 864 162 864C191.823 864 216 888.176 216 918V1026C216 1055.82 191.823 1080 162 1080H54C24.1766 1080 0 1055.82 0 1026V918C0 888.176 24.1766 864 54 864C24.1766 864 0 839.824 0 810V702C0 672.176 24.1766 648 54 648C24.1766 648 0 623.824 0 594V486C0 456.176 24.1766 432 54 432C24.1766 432 0 407.823 0 378V270C0 240.177 24.1766 216 54 216C24.1766 216 0 191.823 0 162V54ZM432 54C432 24.1766 456.176 0 486 0H594C623.824 0 648 24.1766 648 54C648 24.1766 672.176 0 702 0H810C839.824 0 864 24.1766 864 54V162C864 191.823 839.824 216 810 216H702C672.176 216 648 191.823 648 162C648 191.823 623.824 216 594 216H486C456.176 216 432 191.823 432 162V54ZM864 270C864 240.177 888.176 216 918 216H1026C1055.82 216 1080 240.177 1080 270V378C1080 407.823 1055.82 432 1026 432C1055.82 432 1080 456.176 1080 486V594C1080 623.824 1055.82 648 1026 648C1055.82 648 1080 672.176 1080 702V810C1080 839.824 1055.82 864 1026 864C1055.82 864 1080 888.176 1080 918V1026C1080 1055.82 1055.82 1080 1026 1080H918C888.176 1080 864 1055.82 864 1026V918C864 888.176 888.176 864 918 864C888.176 864 864 839.824 864 810V702C864 672.176 888.176 648 918 648C888.176 648 864 623.824 864 594V486C864 456.176 888.176 432 918 432C888.176 432 864 407.823 864 378V270ZM1512 54C1512 24.1766 1536.18 0 1566 0H1674C1703.82 0 1728 24.1766 1728 54C1728 24.1766 1752.18 0 1782 0H1890C1919.82 0 1944 24.1766 1944 54C1944 24.1766 1968.18 0 1998 0H2106C2135.82 0 2160 24.1766 2160 54V162C2160 191.823 2135.82 216 2106 216H1998C1968.18 216 1944 191.823 1944 162C1944 191.823 1919.82 216 1890 216H1782C1752.18 216 1728 191.823 1728 162C1728 191.823 1703.82 216 1674 216H1566C1536.18 216 1512 191.823 1512 162V54ZM1296 270C1296 240.177 1320.18 216 1350 216H1458C1487.82 216 1512 240.177 1512 270V378C1512 407.823 1487.82 432 1458 432C1487.82 432 1512 456.176 1512 486C1512 456.176 1536.18 432 1566 432H1674C1703.82 432 1728 456.176 1728 486C1728 456.176 1752.18 432 1782 432H1890C1919.82 432 1944 456.176 1944 486C1944 456.176 1968.18 432 1998 432H2106C2135.82 432 2160 456.176 2160 486V594C2160 623.824 2135.82 648 2106 648H1998C1968.18 648 1944 623.824 1944 594C1944 623.824 1919.82 648 1890 648H1782C1752.18 648 1728 623.824 1728 594C1728 623.824 1703.82 648 1674 648H1566C1536.18 648 1512 623.824 1512 594C1512 623.824 1487.82 648 1458 648C1487.82 648 1512 672.176 1512 702V810C1512 839.824 1487.82 864 1458 864H1350C1320.18 864 1296 839.824 1296 810V702C1296 672.176 1320.18 648 1350 648C1320.18 648 1296 623.824 1296 594V486C1296 456.176 1320.18 432 1350 432C1320.18 432 1296 407.823 1296 378V270ZM2214 216C2184.18 216 2160 240.177 2160 270V378C2160 407.823 2184.18 432 2214 432H2322C2351.82 432 2376 407.823 2376 378V270C2376 240.177 2351.82 216 2322 216H2214ZM1566 864C1536.18 864 1512 888.176 1512 918V1026C1512 1055.82 1536.18 1080 1566 1080H1674C1703.82 1080 1728 1055.82 1728 1026C1728 1055.82 1752.18 1080 1782 1080H1890C1919.82 1080 1944 1055.82 1944 1026C1944 1055.82 1968.18 1080 1998 1080H2106C2135.82 1080 2160 1055.82 2160 1026V918C2160 888.176 2135.82 864 2106 864H1998C1968.18 864 1944 888.176 1944 918C1944 888.176 1919.82 864 1890 864H1782C1752.18 864 1728 888.176 1728 918C1728 888.176 1703.82 864 1674 864H1566ZM5400 54C5400 24.1766 5424.19 0 5454 0H5562C5591.81 0 5616 24.1766 5616 54C5616 24.1766 5640.19 0 5670 0H5778C5807.81 0 5832 24.1766 5832 54C5832 24.1766 5856.19 0 5886 0H5994C6023.81 0 6048 24.1766 6048 54V162C6048 191.823 6023.81 216 5994 216H5886C5856.19 216 5832 191.823 5832 162C5832 191.823 5807.81 216 5778 216H5670C5640.19 216 5616 191.823 5616 162C5616 191.823 5591.81 216 5562 216H5454C5424.19 216 5400 191.823 5400 162V54ZM5184 270C5184 240.177 5208.18 216 5238 216H5346C5375.82 216 5400 240.177 5400 270V378C5400 407.823 5375.82 432 5346 432C5375.82 432 5400 456.176 5400 486C5400 456.176 5424.19 432 5454 432H5562C5591.81 432 5616 456.176 5616 486C5616 456.176 5640.19 432 5670 432H5778C5807.81 432 5832 456.176 5832 486C5832 456.176 5856.19 432 5886 432H5994C6023.81 432 6048 456.176 6048 486V594C6048 623.824 6023.81 648 5994 648H5886C5856.19 648 5832 623.824 5832 594C5832 623.824 5807.81 648 5778 648H5670C5640.19 648 5616 623.824 5616 594C5616 623.824 5591.81 648 5562 648H5454C5424.19 648 5400 623.824 5400 594C5400 623.824 5375.82 648 5346 648C5375.82 648 5400 672.176 5400 702V810C5400 839.824 5375.82 864 5346 864H5238C5208.18 864 5184 839.824 5184 810V702C5184 672.176 5208.18 648 5238 648C5208.18 648 5184 623.824 5184 594V486C5184 456.176 5208.18 432 5238 432C5208.18 432 5184 407.823 5184 378V270ZM6102 216C6072.19 216 6048 240.177 6048 270V378C6048 407.823 6072.19 432 6102 432H6210C6239.81 432 6264 407.823 6264 378V270C6264 240.177 6239.81 216 6210 216H6102ZM5454 864C5424.19 864 5400 888.176 5400 918V1026C5400 1055.82 5424.19 1080 5454 1080H5562C5591.81 1080 5616 1055.82 5616 1026C5616 1055.82 5640.19 1080 5670 1080H5778C5807.81 1080 5832 1055.82 5832 1026C5832 1055.82 5856.19 1080 5886 1080H5994C6023.81 1080 6048 1055.82 6048 1026V918C6048 888.176 6023.81 864 5994 864H5886C5856.19 864 5832 888.176 5832 918C5832 888.176 5807.81 864 5778 864H5670C5640.19 864 5616 888.176 5616 918C5616 888.176 5591.81 864 5562 864H5454ZM2808 162C2808 191.823 2783.82 216 2754 216C2783.82 216 2808 240.177 2808 270V378C2808 407.823 2783.82 432 2754 432C2783.82 432 2808 456.176 2808 486V594C2808 623.824 2783.82 648 2754 648C2783.82 648 2808 672.176 2808 702V810C2808 839.824 2783.82 864 2754 864H2646C2616.18 864 2592 839.824 2592 810V702C2592 672.176 2616.18 648 2646 648C2616.18 648 2592 623.824 2592 594V486C2592 456.176 2616.18 432 2646 432C2616.18 432 2592 407.823 2592 378V270C2592 240.177 2616.18 216 2646 216C2616.18 216 2592 191.823 2592 162V54C2592 24.1766 2616.18 0 2646 0H2754C2783.82 0 2808 24.1766 2808 54V162ZM3456 810C3456 839.824 3431.82 864 3402 864H3294C3264.18 864 3240 839.824 3240 810V702C3240 672.176 3264.18 648 3294 648H3402C3431.82 648 3456 672.176 3456 702C3456 672.176 3480.18 648 3510 648C3480.18 648 3456 623.824 3456 594V486C3456 456.176 3480.18 432 3510 432C3480.18 432 3456 407.823 3456 378V270C3456 240.177 3480.18 216 3510 216C3480.18 216 3456 191.823 3456 162V54C3456 24.1766 3480.18 0 3510 0H3618C3647.82 0 3672 24.1766 3672 54V162C3672 191.823 3647.82 216 3618 216C3647.82 216 3672 240.177 3672 270V378C3672 407.823 3647.82 432 3618 432C3647.82 432 3672 456.176 3672 486V594C3672 623.824 3647.82 648 3618 648C3647.82 648 3672 672.176 3672 702V810C3672 839.824 3647.82 864 3618 864C3647.82 864 3672 888.176 3672 918V1026C3672 1055.82 3647.82 1080 3618 1080H3510C3480.18 1080 3456 1055.82 3456 1026V918C3456 888.176 3480.18 864 3510 864C3480.18 864 3456 839.824 3456 810ZM3186 1080C3215.82 1080 3240 1055.82 3240 1026V918C3240 888.176 3215.82 864 3186 864H3078C3048.18 864 3024 888.176 3024 918C3024 888.176 2999.82 864 2970 864H2862C2832.18 864 2808 888.176 2808 918V1026C2808 1055.82 2832.18 1080 2862 1080H2970C2999.82 1080 3024 1055.82 3024 1026C3024 1055.82 3048.18 1080 3078 1080H3186ZM4158 0C4128.18 0 4104 24.1766 4104 54C4104 24.1766 4079.82 0 4050 0H3942C3912.18 0 3888 24.1766 3888 54V162C3888 191.823 3912.18 216 3942 216C3912.18 216 3888 240.177 3888 270V378C3888 407.823 3912.18 432 3942 432C3912.18 432 3888 456.176 3888 486V594C3888 623.824 3912.18 648 3942 648C3912.18 648 3888 672.176 3888 702V810C3888 839.824 3912.18 864 3942 864C3912.18 864 3888 888.176 3888 918V1026C3888 1055.82 3912.18 1080 3942 1080H4050C4079.82 1080 4104 1055.82 4104 1026V918C4104 888.176 4079.82 864 4050 864C4079.82 864 4104 839.824 4104 810V702C4104 672.176 4079.82 648 4050 648C4079.82 648 4104 623.824 4104 594V486C4104 456.176 4079.82 432 4050 432C4079.82 432 4104 407.823 4104 378V270C4104 240.177 4079.82 216 4050 216C4079.82 216 4104 191.823 4104 162C4104 191.823 4128.18 216 4158 216H4266C4295.82 216 4320 191.823 4320 162C4320 191.823 4344.18 216 4374 216C4344.18 216 4320 240.177 4320 270V378C4320 407.823 4344.18 432 4374 432C4344.18 432 4320 456.176 4320 486V594C4320 623.824 4344.18 648 4374 648C4344.18 648 4320 672.176 4320 702V810C4320 839.824 4344.18 864 4374 864C4344.18 864 4320 888.176 4320 918V1026C4320 1055.82 4344.18 1080 4374 1080H4482C4511.82 1080 4536 1055.82 4536 1026V918C4536 888.176 4511.82 864 4482 864C4511.82 864 4536 839.824 4536 810V702C4536 672.176 4511.82 648 4482 648C4511.82 648 4536 623.824 4536 594V486C4536 456.176 4511.82 432 4482 432C4511.82 432 4536 407.823 4536 378V270C4536 240.177 4511.82 216 4482 216C4511.82 216 4536 191.823 4536 162C4536 191.823 4560.18 216 4590 216H4698C4727.82 216 4752 191.823 4752 162V54C4752 24.1766 4727.82 0 4698 0H4590C4560.18 0 4536 24.1766 4536 54C4536 24.1766 4511.82 0 4482 0H4374C4344.18 0 4320 24.1766 4320 54C4320 24.1766 4295.82 0 4266 0H4158ZM4752 270C4752 240.177 4776.18 216 4806 216H4914C4943.82 216 4968 240.177 4968 270V378C4968 407.823 4943.82 432 4914 432C4943.82 432 4968 456.176 4968 486V594C4968 623.824 4943.82 648 4914 648C4943.82 648 4968 672.176 4968 702V810C4968 839.824 4943.82 864 4914 864C4943.82 864 4968 888.176 4968 918V1026C4968 1055.82 4943.82 1080 4914 1080H4806C4776.18 1080 4752 1055.82 4752 1026V918C4752 888.176 4776.18 864 4806 864C4776.18 864 4752 839.824 4752 810V702C4752 672.176 4776.18 648 4806 648C4776.18 648 4752 623.824 4752 594V486C4752 456.176 4776.18 432 4806 432C4776.18 432 4752 407.823 4752 378V270Z" fill="#5AFFCE"/>
</svg>
